<svg id="visual" viewBox="0 0 900 150" width="900" height="150" xmlns="http://www.w3.org/2000/svg" xmlns:xlink="http://www.w3.org/1999/xlink" version="1.1"><path d="M0 102L129 117L257 82L386 123L514 91L643 113L771 89L900 104L900 0L771 0L643 0L514 0L386 0L257 0L129 0L0 0Z" fill="#0af5e9"></path><path d="M0 94L129 85L257 79L386 70L514 78L643 79L771 66L900 92L900 0L771 0L643 0L514 0L386 0L257 0L129 0L0 0Z" fill="#00caff"></path><path d="M0 60L129 33L257 38L386 67L514 67L643 57L771 66L900 61L900 0L771 0L643 0L514 0L386 0L257 0L129 0L0 0Z" fill="#0093ff"></path><path d="M0 22L129 16L257 30L386 21L514 36L643 32L771 23L900 27L900 0L771 0L643 0L514 0L386 0L257 0L129 0L0 0Z" fill="#0c3dff"></path></svg>