<svg id="visual" viewBox="0 0 960 300" width="960" height="300" xmlns="http://www.w3.org/2000/svg" xmlns:xlink="http://www.w3.org/1999/xlink" version="1.1"><path d="M0 161L22.8 176.3C45.7 191.7 91.3 222.3 137 231C182.7 239.7 228.3 226.3 274 222.8C319.7 219.3 365.3 225.7 411.2 229.5C457 233.3 503 234.7 548.8 228.5C594.7 222.3 640.3 208.7 686 197.7C731.7 186.7 777.3 178.3 823 183C868.7 187.7 914.3 205.3 937.2 214.2L960 223L960 0L937.2 0C914.3 0 868.7 0 823 0C777.3 0 731.7 0 686 0C640.3 0 594.7 0 548.8 0C503 0 457 0 411.2 0C365.3 0 319.7 0 274 0C228.3 0 182.7 0 137 0C91.3 0 45.7 0 22.8 0L0 0Z" fill="#00ffbc"></path><path d="M0 195L22.8 180.7C45.7 166.3 91.3 137.7 137 140.2C182.7 142.7 228.3 176.3 274 181.7C319.7 187 365.3 164 411.2 148.5C457 133 503 125 548.8 126.3C594.7 127.7 640.3 138.3 686 145C731.7 151.7 777.3 154.3 823 151.7C868.7 149 914.3 141 937.2 137L960 133L960 0L937.2 0C914.3 0 868.7 0 823 0C777.3 0 731.7 0 686 0C640.3 0 594.7 0 548.8 0C503 0 457 0 411.2 0C365.3 0 319.7 0 274 0C228.3 0 182.7 0 137 0C91.3 0 45.7 0 22.8 0L0 0Z" fill="#00d3d4"></path><path d="M0 87L22.8 90.7C45.7 94.3 91.3 101.7 137 111.2C182.7 120.7 228.3 132.3 274 131.3C319.7 130.3 365.3 116.7 411.2 118.3C457 120 503 137 548.8 142.2C594.7 147.3 640.3 140.7 686 135.3C731.7 130 777.3 126 823 125.8C868.7 125.7 914.3 129.3 937.2 131.2L960 133L960 0L937.2 0C914.3 0 868.7 0 823 0C777.3 0 731.7 0 686 0C640.3 0 594.7 0 548.8 0C503 0 457 0 411.2 0C365.3 0 319.7 0 274 0C228.3 0 182.7 0 137 0C91.3 0 45.7 0 22.8 0L0 0Z" fill="#00a3c4"></path><path d="M0 114L22.8 110.2C45.7 106.3 91.3 98.7 137 94.8C182.7 91 228.3 91 274 93.8C319.7 96.7 365.3 102.3 411.2 105.8C457 109.3 503 110.7 548.8 111.5C594.7 112.3 640.3 112.7 686 110.3C731.7 108 777.3 103 823 94.8C868.7 86.7 914.3 75.3 937.2 69.7L960 64L960 0L937.2 0C914.3 0 868.7 0 823 0C777.3 0 731.7 0 686 0C640.3 0 594.7 0 548.8 0C503 0 457 0 411.2 0C365.3 0 319.7 0 274 0C228.3 0 182.7 0 137 0C91.3 0 45.7 0 22.8 0L0 0Z" fill="#0074a0"></path><path d="M0 75L22.8 70.7C45.7 66.3 91.3 57.7 137 49.3C182.7 41 228.3 33 274 35.8C319.7 38.7 365.3 52.3 411.2 60C457 67.7 503 69.3 548.8 63.8C594.7 58.3 640.3 45.7 686 41.7C731.7 37.7 777.3 42.3 823 44.7C868.7 47 914.3 47 937.2 47L960 47L960 0L937.2 0C914.3 0 868.7 0 823 0C777.3 0 731.7 0 686 0C640.3 0 594.7 0 548.8 0C503 0 457 0 411.2 0C365.3 0 319.7 0 274 0C228.3 0 182.7 0 137 0C91.3 0 45.7 0 22.8 0L0 0Z" fill="#114776"></path></svg>