<svg id="visual" viewBox="0 0 900 150" width="900" height="150" xmlns="http://www.w3.org/2000/svg" xmlns:xlink="http://www.w3.org/1999/xlink" version="1.1"><path d="M0 98L113 98L113 86L225 86L225 89L338 89L338 103L450 103L450 92L563 92L563 104L675 104L675 105L788 105L788 100L900 100L900 96L900 0L900 0L788 0L788 0L675 0L675 0L563 0L563 0L450 0L450 0L338 0L338 0L225 0L225 0L113 0L113 0L0 0Z" fill="#0af5e9"></path><path d="M0 72L113 72L113 67L225 67L225 78L338 78L338 69L450 69L450 71L563 71L563 71L675 71L675 78L788 78L788 69L900 69L900 81L900 0L900 0L788 0L788 0L675 0L675 0L563 0L563 0L450 0L450 0L338 0L338 0L225 0L225 0L113 0L113 0L0 0Z" fill="#00caff"></path><path d="M0 49L113 49L113 55L225 55L225 52L338 52L338 59L450 59L450 53L563 53L563 52L675 52L675 56L788 56L788 48L900 48L900 50L900 0L900 0L788 0L788 0L675 0L675 0L563 0L563 0L450 0L450 0L338 0L338 0L225 0L225 0L113 0L113 0L0 0Z" fill="#0093ff"></path><path d="M0 27L113 27L113 29L225 29L225 32L338 32L338 29L450 29L450 29L563 29L563 34L675 34L675 24L788 24L788 35L900 35L900 25L900 0L900 0L788 0L788 0L675 0L675 0L563 0L563 0L450 0L450 0L338 0L338 0L225 0L225 0L113 0L113 0L0 0Z" fill="#0c3dff"></path></svg>