<svg id="visual" viewBox="0 0 900 150" width="900" height="150" xmlns="http://www.w3.org/2000/svg" xmlns:xlink="http://www.w3.org/1999/xlink" version="1.1"><path d="M0 106L21.5 103C43 100 86 94 128.8 95.7C171.7 97.3 214.3 106.7 257.2 110.3C300 114 343 112 385.8 107C428.7 102 471.3 94 514.2 89C557 84 600 82 642.8 86.7C685.7 91.3 728.3 102.7 771.2 108.3C814 114 857 114 878.5 114L900 114L900 0L878.5 0C857 0 814 0 771.2 0C728.3 0 685.7 0 642.8 0C600 0 557 0 514.2 0C471.3 0 428.7 0 385.8 0C343 0 300 0 257.2 0C214.3 0 171.7 0 128.8 0C86 0 43 0 21.5 0L0 0Z" fill="#0af5e9"></path><path d="M0 83L21.5 80.3C43 77.7 86 72.3 128.8 67.5C171.7 62.7 214.3 58.3 257.2 59.8C300 61.3 343 68.7 385.8 71.2C428.7 73.7 471.3 71.3 514.2 70.2C557 69 600 69 642.8 71.2C685.7 73.3 728.3 77.7 771.2 79C814 80.3 857 78.7 878.5 77.8L900 77L900 0L878.5 0C857 0 814 0 771.2 0C728.3 0 685.7 0 642.8 0C600 0 557 0 514.2 0C471.3 0 428.7 0 385.8 0C343 0 300 0 257.2 0C214.3 0 171.7 0 128.8 0C86 0 43 0 21.5 0L0 0Z" fill="#00caff"></path><path d="M0 53L21.5 50C43 47 86 41 128.8 38.2C171.7 35.3 214.3 35.7 257.2 39.3C300 43 343 50 385.8 52.7C428.7 55.3 471.3 53.7 514.2 53.5C557 53.3 600 54.7 642.8 57.3C685.7 60 728.3 64 771.2 62.5C814 61 857 54 878.5 50.5L900 47L900 0L878.5 0C857 0 814 0 771.2 0C728.3 0 685.7 0 642.8 0C600 0 557 0 514.2 0C471.3 0 428.7 0 385.8 0C343 0 300 0 257.2 0C214.3 0 171.7 0 128.8 0C86 0 43 0 21.5 0L0 0Z" fill="#0093ff"></path><path d="M0 26L21.5 27.3C43 28.7 86 31.3 128.8 30.7C171.7 30 214.3 26 257.2 27.5C300 29 343 36 385.8 38.5C428.7 41 471.3 39 514.2 36.2C557 33.3 600 29.7 642.8 29.5C685.7 29.3 728.3 32.7 771.2 33.7C814 34.7 857 33.3 878.5 32.7L900 32L900 0L878.5 0C857 0 814 0 771.2 0C728.3 0 685.7 0 642.8 0C600 0 557 0 514.2 0C471.3 0 428.7 0 385.8 0C343 0 300 0 257.2 0C214.3 0 171.7 0 128.8 0C86 0 43 0 21.5 0L0 0Z" fill="#0c3dff"></path></svg>